<svg xmlns="http://www.w3.org/2000/svg" xmlns:xlink="http://www.w3.org/1999/xlink" width="1920" zoomAndPan="magnify" viewBox="0 0 1440 809.999993" height="1080" preserveAspectRatio="xMidYMid meet" version="1.0"><defs><g/><clipPath id="4e35c74d5a"><path d="M 0 137.558594 L 441 137.558594 L 441 578.558594 L 0 578.558594 Z M 0 137.558594 " clip-rule="nonzero"/></clipPath><clipPath id="8eaaa255ef"><path d="M 55.710938 258.476562 L 287 258.476562 L 287 430.226562 L 55.710938 430.226562 Z M 55.710938 258.476562 " clip-rule="nonzero"/></clipPath><clipPath id="9082e3f302"><path d="M 229 258.476562 L 384.960938 258.476562 L 384.960938 430.226562 L 229 430.226562 Z M 229 258.476562 " clip-rule="nonzero"/></clipPath></defs><g clip-path="url(#4e35c74d5a)"><path fill="#ffffff" d="M 220.5 137.558594 C 98.871094 137.558594 0 236.519531 0 358.058594 C 0 479.6875 98.871094 578.558594 220.5 578.558594 C 342.039062 578.558594 441 479.6875 441 358.058594 C 441 236.519531 342.039062 137.558594 220.5 137.558594 Z M 220.5 561.359375 C 108.398438 561.359375 17.199219 470.160156 17.199219 358.058594 C 17.199219 245.957031 108.398438 154.757812 220.5 154.757812 C 332.601562 154.757812 423.800781 245.957031 423.800781 358.058594 C 423.800781 470.160156 332.601562 561.359375 220.5 561.359375 Z M 220.5 561.359375 " fill-opacity="1" fill-rule="nonzero"/></g><path fill="#ffffff" d="M 220.5 166.226562 C 114.75 166.226562 28.664062 252.308594 28.664062 358.058594 C 28.664062 463.8125 114.75 549.894531 220.5 549.894531 C 326.25 549.894531 412.335938 463.8125 412.335938 358.058594 C 412.335938 252.308594 326.25 166.226562 220.5 166.226562 Z M 220.5 166.226562 " fill-opacity="1" fill-rule="nonzero"/><g clip-path="url(#8eaaa255ef)"><path fill="#004a98" d="M 175.378906 258.476562 L 55.773438 430.269531 L 180.03125 430.269531 L 216.15625 378.375 L 204.164062 359.125 L 169.144531 409.425781 L 95.683594 409.425781 L 174.726562 295.890625 L 261.382812 430.269531 L 286.601562 430.269531 Z M 175.378906 258.476562 " fill-opacity="1" fill-rule="nonzero"/></g><g clip-path="url(#9082e3f302)"><path fill="#004a98" d="M 274.234375 258.476562 L 229.519531 322.703125 L 241.730469 341.640625 L 273.582031 295.890625 L 360.320312 430.269531 L 385.15625 430.269531 Z M 274.234375 258.476562 " fill-opacity="1" fill-rule="nonzero"/></g><g fill="#ffffff" fill-opacity="1"><g transform="translate(438.669416, 459.927463)"><g><path d="M 165.15625 -52.1875 L 181.109375 -35 C 180.085938 -33.5625 177.679688 -30.847656 173.890625 -26.859375 C 170.109375 -22.867188 164.992188 -18.519531 158.546875 -13.8125 C 152.097656 -9.101562 144.320312 -5.0625 135.21875 -1.6875 C 126.113281 1.6875 115.625 3.375 103.75 3.375 C 91.882812 3.375 80.523438 1.328125 69.671875 -2.765625 C 58.828125 -6.859375 49.160156 -13.046875 40.671875 -21.328125 C 32.179688 -29.617188 25.476562 -40.109375 20.5625 -52.796875 C 15.65625 -65.484375 13.203125 -80.421875 13.203125 -97.609375 C 13.203125 -114.804688 15.757812 -129.695312 20.875 -142.28125 C 25.988281 -154.863281 32.738281 -165.25 41.125 -173.4375 C 49.519531 -181.625 58.679688 -187.710938 68.609375 -191.703125 C 78.535156 -195.691406 88.203125 -197.6875 97.609375 -197.6875 C 110.296875 -197.6875 120.53125 -196 128.3125 -192.625 C 136.09375 -189.25 142.078125 -185.460938 146.265625 -181.265625 C 150.460938 -177.066406 153.378906 -173.738281 155.015625 -171.28125 L 155.015625 -194.921875 L 178.046875 -194.921875 L 178.046875 -124.328125 L 155.328125 -124.328125 L 154.71875 -130.15625 C 153.894531 -137.519531 151.535156 -144.578125 147.640625 -151.328125 C 143.753906 -158.085938 138.179688 -163.613281 130.921875 -167.90625 C 123.660156 -172.207031 114.398438 -174.359375 103.140625 -174.359375 C 91.890625 -174.359375 81.757812 -171.335938 72.75 -165.296875 C 63.75 -159.265625 56.640625 -150.566406 51.421875 -139.203125 C 46.203125 -127.847656 43.59375 -114.191406 43.59375 -98.234375 C 43.59375 -82.265625 46.300781 -68.601562 51.71875 -57.25 C 57.144531 -45.894531 64.515625 -37.195312 73.828125 -31.15625 C 83.140625 -25.125 93.726562 -22.109375 105.59375 -22.109375 C 114.601562 -22.109375 122.585938 -23.382812 129.546875 -25.9375 C 136.503906 -28.5 142.4375 -31.617188 147.34375 -35.296875 C 152.257812 -38.984375 156.25 -42.410156 159.3125 -45.578125 C 162.382812 -48.753906 164.332031 -50.957031 165.15625 -52.1875 Z M 165.15625 -52.1875 "/></g></g></g><g fill="#ffffff" fill-opacity="1"><g transform="translate(633.591392, 459.927463)"><g><path d="M 86.5625 0 L 7.375 0 L 7.375 -21.1875 L 32.53125 -21.1875 L 32.53125 -173.75 L 7.375 -173.75 L 7.375 -194.921875 L 86.5625 -194.921875 L 86.5625 -173.75 L 61.390625 -173.75 L 61.390625 -21.1875 L 86.5625 -21.1875 Z M 86.5625 0 "/></g></g></g><g fill="#ffffff" fill-opacity="1"><g transform="translate(727.52229, 459.927463)"><g><path d="M 181.109375 0 L 136.90625 0 L 90.25 -80.734375 L 61.390625 -80.734375 L 61.390625 -21.1875 L 84.71875 -21.1875 L 84.71875 0 L 7.375 0 L 7.375 -21.1875 L 32.53125 -21.1875 L 32.53125 -173.75 L 7.375 -173.75 L 7.375 -194.921875 L 97 -194.921875 C 116.445312 -194.921875 131.796875 -190.519531 143.046875 -181.71875 C 148.566406 -177.425781 153.320312 -171.492188 157.3125 -163.921875 C 161.3125 -156.347656 163.3125 -147.34375 163.3125 -136.90625 C 163.3125 -129.945312 161.878906 -122.832031 159.015625 -115.5625 C 156.148438 -108.300781 151.546875 -101.753906 145.203125 -95.921875 C 138.859375 -90.085938 130.566406 -85.945312 120.328125 -83.5 L 158.390625 -21.1875 L 181.109375 -21.1875 Z M 61.390625 -101.90625 L 90.859375 -101.90625 C 97.410156 -101.90625 102.9375 -102.316406 107.4375 -103.140625 C 111.9375 -103.960938 116.03125 -105.597656 119.71875 -108.046875 C 123.40625 -110.503906 126.679688 -114.238281 129.546875 -119.25 C 132.410156 -124.269531 133.84375 -130.460938 133.84375 -137.828125 C 133.84375 -145.191406 132.410156 -151.378906 129.546875 -156.390625 C 126.679688 -161.410156 123.40625 -165.148438 119.71875 -167.609375 C 116.03125 -170.054688 111.9375 -171.691406 107.4375 -172.515625 C 102.9375 -173.335938 97.410156 -173.75 90.859375 -173.75 L 61.390625 -173.75 Z M 61.390625 -101.90625 "/></g></g></g><g fill="#ffffff" fill-opacity="1"><g transform="translate(909.858726, 459.927463)"><g><path d="M 165.15625 -52.1875 L 181.109375 -35 C 180.085938 -33.5625 177.679688 -30.847656 173.890625 -26.859375 C 170.109375 -22.867188 164.992188 -18.519531 158.546875 -13.8125 C 152.097656 -9.101562 144.320312 -5.0625 135.21875 -1.6875 C 126.113281 1.6875 115.625 3.375 103.75 3.375 C 91.882812 3.375 80.523438 1.328125 69.671875 -2.765625 C 58.828125 -6.859375 49.160156 -13.046875 40.671875 -21.328125 C 32.179688 -29.617188 25.476562 -40.109375 20.5625 -52.796875 C 15.65625 -65.484375 13.203125 -80.421875 13.203125 -97.609375 C 13.203125 -114.804688 15.757812 -129.695312 20.875 -142.28125 C 25.988281 -154.863281 32.738281 -165.25 41.125 -173.4375 C 49.519531 -181.625 58.679688 -187.710938 68.609375 -191.703125 C 78.535156 -195.691406 88.203125 -197.6875 97.609375 -197.6875 C 110.296875 -197.6875 120.53125 -196 128.3125 -192.625 C 136.09375 -189.25 142.078125 -185.460938 146.265625 -181.265625 C 150.460938 -177.066406 153.378906 -173.738281 155.015625 -171.28125 L 155.015625 -194.921875 L 178.046875 -194.921875 L 178.046875 -124.328125 L 155.328125 -124.328125 L 154.71875 -130.15625 C 153.894531 -137.519531 151.535156 -144.578125 147.640625 -151.328125 C 143.753906 -158.085938 138.179688 -163.613281 130.921875 -167.90625 C 123.660156 -172.207031 114.398438 -174.359375 103.140625 -174.359375 C 91.890625 -174.359375 81.757812 -171.335938 72.75 -165.296875 C 63.75 -159.265625 56.640625 -150.566406 51.421875 -139.203125 C 46.203125 -127.847656 43.59375 -114.191406 43.59375 -98.234375 C 43.59375 -82.265625 46.300781 -68.601562 51.71875 -57.25 C 57.144531 -45.894531 64.515625 -37.195312 73.828125 -31.15625 C 83.140625 -25.125 93.726562 -22.109375 105.59375 -22.109375 C 114.601562 -22.109375 122.585938 -23.382812 129.546875 -25.9375 C 136.503906 -28.5 142.4375 -31.617188 147.34375 -35.296875 C 152.257812 -38.984375 156.25 -42.410156 159.3125 -45.578125 C 162.382812 -48.753906 164.332031 -50.957031 165.15625 -52.1875 Z M 165.15625 -52.1875 "/></g></g></g><g fill="#ffffff" fill-opacity="1"><g transform="translate(1104.780685, 459.927463)"><g><path d="M 153.484375 0 L 7.375 0 L 7.375 -21.1875 L 32.53125 -21.1875 L 32.53125 -173.75 L 7.375 -173.75 L 7.375 -194.921875 L 89.015625 -194.921875 L 89.015625 -173.75 L 61.390625 -173.75 L 61.390625 -21.1875 L 130.15625 -21.1875 L 130.15625 -67.53125 L 153.484375 -67.53125 Z M 153.484375 0 "/></g></g></g><g fill="#ffffff" fill-opacity="1"><g transform="translate(1268.085365, 459.927463)"><g><path d="M 163.3125 0 L 7.375 0 L 7.375 -21.1875 L 32.53125 -21.1875 L 32.53125 -173.75 L 7.375 -173.75 L 7.375 -194.921875 L 156.546875 -194.921875 L 156.546875 -143.046875 L 133.84375 -143.046875 L 133.84375 -173.75 L 61.390625 -173.75 L 61.390625 -111.125 L 100.375 -111.125 L 100.375 -133.84375 L 121.5625 -133.84375 L 121.5625 -66.921875 L 100.375 -66.921875 L 100.375 -90.5625 L 61.390625 -90.5625 L 61.390625 -21.1875 L 139.984375 -21.1875 L 139.984375 -63.234375 L 163.3125 -63.234375 Z M 163.3125 0 "/></g></g></g></svg>