<svg xmlns="http://www.w3.org/2000/svg" xmlns:xlink="http://www.w3.org/1999/xlink" width="1920" zoomAndPan="magnify" viewBox="0 0 1440 809.999993" height="1080" preserveAspectRatio="xMidYMid meet" version="1.0"><defs><g/><clipPath id="bf8c569b6b"><path d="M 0 137.558594 L 441 137.558594 L 441 578.558594 L 0 578.558594 Z M 0 137.558594 " clip-rule="nonzero"/></clipPath><clipPath id="d35bf0aa36"><path d="M 55.679688 258.40625 L 287 258.40625 L 287 430.15625 L 55.679688 430.15625 Z M 55.679688 258.40625 " clip-rule="nonzero"/></clipPath><clipPath id="a1b3173d95"><path d="M 229 258.40625 L 384.929688 258.40625 L 384.929688 430.15625 L 229 430.15625 Z M 229 258.40625 " clip-rule="nonzero"/></clipPath></defs><g clip-path="url(#bf8c569b6b)"><path fill="#004a98" d="M 220.324219 137.558594 C 98.792969 137.558594 0 236.441406 0 357.882812 C 0 479.414062 98.792969 578.207031 220.324219 578.207031 C 341.765625 578.207031 440.648438 479.414062 440.648438 357.882812 C 440.648438 236.441406 341.765625 137.558594 220.324219 137.558594 Z M 220.324219 561.023438 C 108.3125 561.023438 17.183594 469.898438 17.183594 357.882812 C 17.183594 245.871094 108.3125 154.746094 220.324219 154.746094 C 332.335938 154.746094 423.464844 245.871094 423.464844 357.882812 C 423.464844 469.898438 332.335938 561.023438 220.324219 561.023438 Z M 220.324219 561.023438 " fill-opacity="1" fill-rule="nonzero"/></g><path fill="#004a98" d="M 220.324219 166.203125 C 114.65625 166.203125 28.640625 252.214844 28.640625 357.882812 C 28.640625 463.550781 114.65625 549.566406 220.324219 549.566406 C 325.992188 549.566406 412.007812 463.550781 412.007812 357.882812 C 412.007812 252.214844 325.992188 166.203125 220.324219 166.203125 Z M 220.324219 166.203125 " fill-opacity="1" fill-rule="nonzero"/><g clip-path="url(#d35bf0aa36)"><path fill="#ffffff" d="M 175.269531 258.40625 L 55.730469 430.101562 L 179.917969 430.101562 L 216.027344 378.238281 L 204.039062 359 L 169.039062 409.269531 L 95.617188 409.269531 L 174.617188 295.796875 L 261.226562 430.101562 L 286.433594 430.101562 Z M 175.269531 258.40625 " fill-opacity="1" fill-rule="nonzero"/></g><g clip-path="url(#a1b3173d95)"><path fill="#ffffff" d="M 274.070312 258.40625 L 229.382812 322.59375 L 241.585938 341.523438 L 273.421875 295.796875 L 360.109375 430.101562 L 384.933594 430.101562 Z M 274.070312 258.40625 " fill-opacity="1" fill-rule="nonzero"/></g><g fill="#004a98" fill-opacity="1"><g transform="translate(440.654432, 460.34962)"><g><path d="M 165.046875 -52.15625 L 181 -34.96875 C 179.976562 -33.539062 177.570312 -30.832031 173.78125 -26.84375 C 170 -22.851562 164.882812 -18.503906 158.4375 -13.796875 C 152 -9.097656 144.226562 -5.0625 135.125 -1.6875 C 126.03125 1.6875 115.550781 3.375 103.6875 3.375 C 91.832031 3.375 80.484375 1.332031 69.640625 -2.75 C 58.796875 -6.84375 49.128906 -13.03125 40.640625 -21.3125 C 32.160156 -29.601562 25.460938 -40.085938 20.546875 -52.765625 C 15.640625 -65.441406 13.1875 -80.375 13.1875 -97.5625 C 13.1875 -114.738281 15.742188 -129.613281 20.859375 -142.1875 C 25.972656 -154.769531 32.722656 -165.148438 41.109375 -173.328125 C 49.492188 -181.515625 58.644531 -187.597656 68.5625 -191.578125 C 78.476562 -195.566406 88.144531 -197.5625 97.5625 -197.5625 C 110.238281 -197.5625 120.460938 -195.875 128.234375 -192.5 C 136.003906 -189.125 141.984375 -185.335938 146.171875 -181.140625 C 150.367188 -176.953125 153.285156 -173.632812 154.921875 -171.1875 L 154.921875 -194.8125 L 177.9375 -194.8125 L 177.9375 -124.25 L 155.234375 -124.25 L 154.625 -130.078125 C 153.800781 -137.441406 151.445312 -144.492188 147.5625 -151.234375 C 143.675781 -157.984375 138.101562 -163.503906 130.84375 -167.796875 C 123.582031 -172.097656 114.328125 -174.25 103.078125 -174.25 C 91.828125 -174.25 81.703125 -171.234375 72.703125 -165.203125 C 63.703125 -159.171875 56.59375 -150.476562 51.375 -139.125 C 46.164062 -127.769531 43.5625 -114.117188 43.5625 -98.171875 C 43.5625 -82.210938 46.269531 -68.554688 51.6875 -57.203125 C 57.113281 -45.859375 64.476562 -37.171875 73.78125 -31.140625 C 83.082031 -25.109375 93.664062 -22.09375 105.53125 -22.09375 C 114.53125 -22.09375 122.503906 -23.367188 129.453125 -25.921875 C 136.410156 -28.472656 142.34375 -31.585938 147.25 -35.265625 C 152.164062 -38.953125 156.15625 -42.378906 159.21875 -45.546875 C 162.289062 -48.722656 164.234375 -50.925781 165.046875 -52.15625 Z M 165.046875 -52.15625 "/></g></g></g><g fill="#004a98" fill-opacity="1"><g transform="translate(635.459284, 460.34962)"><g><path d="M 86.515625 0 L 7.359375 0 L 7.359375 -21.171875 L 32.515625 -21.171875 L 32.515625 -173.640625 L 7.359375 -173.640625 L 7.359375 -194.8125 L 86.515625 -194.8125 L 86.515625 -173.640625 L 61.359375 -173.640625 L 61.359375 -21.171875 L 86.515625 -21.171875 Z M 86.515625 0 "/></g></g></g><g fill="#004a98" fill-opacity="1"><g transform="translate(729.33374, 460.34962)"><g><path d="M 181 0 L 136.828125 0 L 90.1875 -80.6875 L 61.359375 -80.6875 L 61.359375 -21.171875 L 84.671875 -21.171875 L 84.671875 0 L 7.359375 0 L 7.359375 -21.171875 L 32.515625 -21.171875 L 32.515625 -173.640625 L 7.359375 -173.640625 L 7.359375 -194.8125 L 96.9375 -194.8125 C 116.375 -194.8125 131.710938 -190.410156 142.953125 -181.609375 C 148.484375 -177.316406 153.238281 -171.382812 157.21875 -163.8125 C 161.207031 -156.25 163.203125 -147.253906 163.203125 -136.828125 C 163.203125 -129.867188 161.769531 -122.757812 158.90625 -115.5 C 156.050781 -108.238281 151.453125 -101.691406 145.109375 -95.859375 C 138.765625 -90.035156 130.484375 -85.894531 120.265625 -83.4375 L 158.296875 -21.171875 L 181 -21.171875 Z M 61.359375 -101.84375 L 90.8125 -101.84375 C 97.351562 -101.84375 102.875 -102.253906 107.375 -103.078125 C 111.875 -103.898438 115.960938 -105.535156 119.640625 -107.984375 C 123.328125 -110.441406 126.597656 -114.175781 129.453125 -119.1875 C 132.316406 -124.195312 133.75 -130.382812 133.75 -137.75 C 133.75 -145.101562 132.316406 -151.285156 129.453125 -156.296875 C 126.597656 -161.316406 123.328125 -165.050781 119.640625 -167.5 C 115.960938 -169.957031 111.875 -171.59375 107.375 -172.40625 C 102.875 -173.226562 97.351562 -173.640625 90.8125 -173.640625 L 61.359375 -173.640625 Z M 61.359375 -101.84375 "/></g></g></g><g fill="#004a98" fill-opacity="1"><g transform="translate(911.560613, 460.34962)"><g><path d="M 165.046875 -52.15625 L 181 -34.96875 C 179.976562 -33.539062 177.570312 -30.832031 173.78125 -26.84375 C 170 -22.851562 164.882812 -18.503906 158.4375 -13.796875 C 152 -9.097656 144.226562 -5.0625 135.125 -1.6875 C 126.03125 1.6875 115.550781 3.375 103.6875 3.375 C 91.832031 3.375 80.484375 1.332031 69.640625 -2.75 C 58.796875 -6.84375 49.128906 -13.03125 40.640625 -21.3125 C 32.160156 -29.601562 25.460938 -40.085938 20.546875 -52.765625 C 15.640625 -65.441406 13.1875 -80.375 13.1875 -97.5625 C 13.1875 -114.738281 15.742188 -129.613281 20.859375 -142.1875 C 25.972656 -154.769531 32.722656 -165.148438 41.109375 -173.328125 C 49.492188 -181.515625 58.644531 -187.597656 68.5625 -191.578125 C 78.476562 -195.566406 88.144531 -197.5625 97.5625 -197.5625 C 110.238281 -197.5625 120.460938 -195.875 128.234375 -192.5 C 136.003906 -189.125 141.984375 -185.335938 146.171875 -181.140625 C 150.367188 -176.953125 153.285156 -173.632812 154.921875 -171.1875 L 154.921875 -194.8125 L 177.9375 -194.8125 L 177.9375 -124.25 L 155.234375 -124.25 L 154.625 -130.078125 C 153.800781 -137.441406 151.445312 -144.492188 147.5625 -151.234375 C 143.675781 -157.984375 138.101562 -163.503906 130.84375 -167.796875 C 123.582031 -172.097656 114.328125 -174.25 103.078125 -174.25 C 91.828125 -174.25 81.703125 -171.234375 72.703125 -165.203125 C 63.703125 -159.171875 56.59375 -150.476562 51.375 -139.125 C 46.164062 -127.769531 43.5625 -114.117188 43.5625 -98.171875 C 43.5625 -82.210938 46.269531 -68.554688 51.6875 -57.203125 C 57.113281 -45.859375 64.476562 -37.171875 73.78125 -31.140625 C 83.082031 -25.109375 93.664062 -22.09375 105.53125 -22.09375 C 114.53125 -22.09375 122.503906 -23.367188 129.453125 -25.921875 C 136.410156 -28.472656 142.34375 -31.585938 147.25 -35.265625 C 152.164062 -38.953125 156.15625 -42.378906 159.21875 -45.546875 C 162.289062 -48.722656 164.234375 -50.925781 165.046875 -52.15625 Z M 165.046875 -52.15625 "/></g></g></g><g fill="#004a98" fill-opacity="1"><g transform="translate(1106.365448, 460.34962)"><g><path d="M 153.390625 0 L 7.359375 0 L 7.359375 -21.171875 L 32.515625 -21.171875 L 32.515625 -173.640625 L 7.359375 -173.640625 L 7.359375 -194.8125 L 88.96875 -194.8125 L 88.96875 -173.640625 L 61.359375 -173.640625 L 61.359375 -21.171875 L 130.078125 -21.171875 L 130.078125 -67.484375 L 153.390625 -67.484375 Z M 153.390625 0 "/></g></g></g><g fill="#004a98" fill-opacity="1"><g transform="translate(1269.572001, 460.34962)"><g><path d="M 163.203125 0 L 7.359375 0 L 7.359375 -21.171875 L 32.515625 -21.171875 L 32.515625 -173.640625 L 7.359375 -173.640625 L 7.359375 -194.8125 L 156.453125 -194.8125 L 156.453125 -142.953125 L 133.75 -142.953125 L 133.75 -173.640625 L 61.359375 -173.640625 L 61.359375 -111.0625 L 100.3125 -111.0625 L 100.3125 -133.75 L 121.484375 -133.75 L 121.484375 -66.875 L 100.3125 -66.875 L 100.3125 -90.5 L 61.359375 -90.5 L 61.359375 -21.171875 L 139.890625 -21.171875 L 139.890625 -63.203125 L 163.203125 -63.203125 Z M 163.203125 0 "/></g></g></g></svg>